<?xml version="1.0" standalone="no"?>
<!DOCTYPE svg PUBLIC "-//W3C//DTD SVG 20010904//EN"
 "http://www.w3.org/TR/2001/REC-SVG-20010904/DTD/svg10.dtd">
<svg version="1.0" xmlns="http://www.w3.org/2000/svg"
 width="512.000000pt" height="512.000000pt" viewBox="0 0 512.000000 512.000000"
 preserveAspectRatio="xMidYMid meet">
<metadata>
Created by potrace 1.16, written by Peter Selinger 2001-2019
</metadata>
<g transform="translate(0.000000,512.000000) scale(0.100000,-0.100000)"
fill="#000000" stroke="none">
<path d="M2424 4359 c-2 -4 -21 -8 -41 -9 -57 -2 -118 -8 -120 -10 -2 -2 -12
-4 -23 -5 -11 -1 -21 -3 -22 -5 -2 -1 -10 -3 -18 -5 -128 -28 -238 -65 -360
-121 -98 -45 -298 -161 -328 -191 -8 -7 -30 -26 -50 -41 -21 -15 -43 -35 -50
-44 -7 -10 -19 -18 -25 -19 -7 0 -30 -22 -52 -49 -22 -27 -46 -49 -52 -49 -7
-1 -13 -7 -13 -14 0 -7 -10 -23 -22 -34 -13 -11 -34 -35 -48 -53 -14 -18 -30
-37 -35 -44 -43 -47 -177 -288 -215 -386 -44 -113 -90 -274 -90 -315 0 -12 -3
-25 -7 -29 -4 -4 -8 -19 -9 -34 -1 -15 -3 -27 -4 -27 -12 0 -11 -455 1 -481 2
-5 4 -20 4 -34 0 -14 3 -27 7 -30 4 -3 9 -27 10 -53 2 -26 6 -47 9 -47 3 0 6
-6 7 -12 0 -7 3 -24 7 -38 4 -14 8 -32 9 -40 1 -8 7 -24 14 -36 6 -11 13 -31
15 -45 2 -13 11 -42 21 -64 36 -81 129 -270 136 -275 4 -3 13 -16 20 -29 7
-14 17 -30 22 -35 5 -6 27 -36 49 -66 70 -97 220 -261 243 -267 4 -1 28 -20
52 -42 25 -23 47 -41 49 -41 8 0 100 -65 103 -72 2 -5 7 -8 11 -8 4 0 56 -27
115 -60 59 -33 111 -60 116 -60 4 0 45 -15 91 -34 46 -18 109 -39 139 -46 30
-8 60 -17 65 -21 6 -3 18 -5 28 -4 9 2 17 0 17 -5 0 -4 11 -6 25 -5 14 2 25 0
25 -3 0 -4 15 -8 33 -8 36 -2 112 -11 112 -14 0 -5 331 -6 340 -1 6 3 24 6 40
7 17 1 38 5 47 9 10 4 24 5 32 2 8 -3 17 -3 21 1 4 4 15 8 26 8 10 1 20 2 22
4 3 2 23 7 61 15 55 11 192 59 269 94 26 11 52 21 58 21 6 0 30 13 54 30 24
16 47 30 51 30 10 0 143 88 192 127 23 19 42 31 42 28 0 -4 12 7 27 24 15 17
30 31 34 31 8 0 139 131 139 139 0 4 8 13 18 22 71 62 248 350 301 489 32 85
50 138 61 185 7 28 16 55 20 60 4 6 6 18 5 28 -2 9 0 17 4 17 4 0 7 10 6 23
-1 12 0 27 4 32 3 6 6 21 7 35 1 14 3 25 4 25 9 0 20 384 11 400 -3 6 -7 28
-7 50 -1 22 -3 40 -4 40 -2 0 -4 14 -5 30 -2 17 -4 30 -5 30 -1 0 -3 11 -6 25
-12 73 -59 235 -89 305 -7 17 -19 48 -26 70 -7 22 -19 47 -27 57 -7 9 -15 22
-16 30 -1 7 -14 32 -29 55 -15 24 -27 45 -27 48 0 7 -99 146 -123 173 -11 12
-17 22 -13 22 5 0 -6 12 -23 27 -17 15 -31 30 -31 33 0 8 -140 150 -148 150
-4 0 -15 8 -23 18 -19 20 -42 39 -89 72 -19 13 -37 27 -40 30 -3 3 -17 11 -32
19 -16 8 -28 18 -28 23 0 4 -6 8 -13 8 -7 0 -23 9 -35 20 -12 12 -22 18 -22
14 0 -3 -6 -1 -13 5 -17 13 -129 71 -140 71 -4 0 -26 9 -50 19 -91 41 -200 77
-219 73 -5 -1 -8 2 -8 6 0 4 -10 9 -22 10 -26 2 -63 10 -63 12 0 5 -45 11
-180 25 -16 1 -32 4 -35 5 -12 6 -272 4 -276 -1z m1038 -986 l-3 -183 -344 0
-345 0 0 -205 0 -205 168 0 167 0 0 -190 0 -190 -167 0 -168 0 0 -415 0 -415
-205 0 -205 0 0 415 0 415 -175 0 -175 0 0 190 0 190 175 0 175 0 0 205 0 205
-350 0 -350 0 0 178 c0 98 2 181 4 183 2 2 409 4 903 4 l898 0 -3 -182z"/>
</g>
</svg>
